<svg width="960" height="540" viewBox="0 0 960 540" fill="none" xmlns="http://www.w3.org/2000/svg">
  <rect width="960" height="540" fill="#07111f"/>
  <rect x="48" y="42" width="864" height="456" rx="28" fill="#0d1728" stroke="#22d3ee" stroke-opacity="0.45" stroke-width="2"/>
  <rect x="86" y="82" width="788" height="64" rx="16" fill="#111c31"/>
  <circle cx="122" cy="114" r="10" fill="#22d3ee"/>
  <circle cx="156" cy="114" r="10" fill="#a855f7"/>
  <circle cx="190" cy="114" r="10" fill="#ec4899"/>
  <rect x="646" y="101" width="178" height="18" rx="9" fill="#334155"/>
  <rect x="86" y="176" width="260" height="272" rx="22" fill="#111c31" stroke="#8b5cf6" stroke-opacity="0.35"/>
  <rect x="382" y="176" width="492" height="76" rx="18" fill="#102033"/>
  <rect x="382" y="278" width="492" height="76" rx="18" fill="#102033"/>
  <rect x="382" y="380" width="492" height="68" rx="18" fill="#102033"/>
  <rect x="122" y="220" width="188" height="20" rx="10" fill="#67e8f9"/>
  <rect x="122" y="268" width="146" height="16" rx="8" fill="#64748b"/>
  <rect x="122" y="312" width="188" height="16" rx="8" fill="#64748b"/>
  <rect x="122" y="374" width="160" height="44" rx="14" fill="url(#outpassButton)"/>
  <rect x="418" y="203" width="158" height="16" rx="8" fill="#67e8f9"/>
  <rect x="418" y="228" width="310" height="10" rx="5" fill="#64748b"/>
  <rect x="760" y="204" width="74" height="28" rx="14" fill="#22c55e" fill-opacity="0.22" stroke="#22c55e" stroke-opacity="0.55"/>
  <rect x="418" y="305" width="184" height="16" rx="8" fill="#c084fc"/>
  <rect x="418" y="330" width="286" height="10" rx="5" fill="#64748b"/>
  <rect x="760" y="306" width="74" height="28" rx="14" fill="#facc15" fill-opacity="0.18" stroke="#facc15" stroke-opacity="0.55"/>
  <rect x="418" y="405" width="170" height="16" rx="8" fill="#67e8f9"/>
  <rect x="418" y="430" width="338" height="10" rx="5" fill="#64748b"/>
  <path d="M674 114H786" stroke="#22d3ee" stroke-width="10" stroke-linecap="round"/>
  <text x="122" y="196" fill="#e0f2fe" font-family="Arial, sans-serif" font-size="18" font-weight="700">New Outpass</text>
  <text x="418" y="196" fill="#e0f2fe" font-family="Arial, sans-serif" font-size="18" font-weight="700">Student Requests</text>
  <defs>
    <linearGradient id="outpassButton" x1="122" y1="374" x2="282" y2="418" gradientUnits="userSpaceOnUse">
      <stop stop-color="#22d3ee"/>
      <stop offset="1" stop-color="#3b82f6"/>
    </linearGradient>
  </defs>
</svg>
